<svg width="54" height="39" viewBox="0 0 54 39" fill="none" xmlns="http://www.w3.org/2000/svg">
<path d="M41.7623 22.1541C39.2828 22.1541 36.9585 21.0837 34.8458 19.3419L35.3587 16.8757L35.3767 16.7794C35.8425 14.1597 37.287 9.76604 41.7645 9.76604C45.1215 9.76604 47.8462 12.5439 47.8462 15.9612C47.844 19.3739 45.1193 22.1541 41.7623 22.1541ZM41.7623 3.49753C36.0495 3.49753 31.6148 7.27697 29.8148 13.5042C27.0698 9.30078 24.9818 4.25388 23.769 0H17.613V16.3004C17.6085 19.5229 15.0457 22.1358 11.8822 22.1403C8.721 22.1358 6.1605 19.5206 6.156 16.3004V0H0V16.3004C0 22.9792 5.3325 28.4547 11.8822 28.4547C18.4365 28.4547 23.769 22.9792 23.769 16.3004V13.573C24.9593 16.1102 26.4285 18.6818 28.2105 20.9554L24.4462 39H30.7395L33.4688 25.9129C35.8605 27.4691 38.61 28.4547 41.7623 28.4547C48.5123 28.4547 54 22.8348 54 15.9635C54 9.08762 48.5123 3.49753 41.7623 3.49753Z" fill="currentColor"/>
</svg>
